RobotoA2-XOUC2.ufo
<glyph name="F" format="2">
  <advance width="942"/>
  <unicode hex="0046"/>
  <anchor x="485" y="0" name="bottom"/>
  <anchor x="392" y="1457" name="top"/>
  <outline>
    <contour>
      <point x="170" y="0" type="line"/>
      <point x="170" y="1456" type="line"/>
      <point x="884" y="1456" type="line"/>
      <point x="884" y="1298" type="line"/>
      <point x="174" y="1298" type="line"/>
      <point x="174" y="0" type="line"/>
    </contour>
    <contour>
      <point x="172" y="643" type="line"/>
      <point x="172" y="801" type="line"/>
      <point x="785" y="801" type="line"/>
      <point x="785" y="643" type="line"/>
    </contour>
  </outline>
</glyph>
<glyph name="G" format="2">
  <advance width="1036"/>
  <unicode hex="0047"/>
  <anchor x="542" y="0" name="bottom"/>
  <anchor x="542" y="1456" name="top"/>
  <outline>
    <contour>
      <point x="116" y="682" type="qcurve" smooth="yes"/>
      <point x="116" y="774" type="line" smooth="yes"/>
      <point x="116" y="1110"/>
      <point x="351" y="1486"/>
      <point x="537" y="1486" type="qcurve" smooth="yes"/>
      <point x="705" y="1486"/>
      <point x="901" y="1222"/>
      <point x="901" y="1041" type="qcurve" smooth="yes"/>
      <point x="901" y="1030" type="line"/>
      <point x="897" y="1030" type="line"/>
      <point x="897" y="1040" type="line" smooth="yes"/>
      <point x="897" y="1140"/>
      <point x="711" y="1322"/>
      <point x="542" y="1322" type="qcurve" smooth="yes"/>
      <point x="351" y="1322"/>
      <point x="120" y="1030"/>
      <point x="120" y="774" type="qcurve" smooth="yes"/>
      <point x="120" y="682" type="line" smooth="yes"/>
      <point x="120" y="426"/>
      <point x="351" y="134"/>
      <point x="561" y="134" type="qcurve" smooth="yes"/>
      <point x="671" y="134"/>
      <point x="831" y="180"/>
      <point x="903" y="230" type="qcurve"/>
      <point x="903" y="570" type="line"/>
      <point x="541" y="570" type="line"/>
      <point x="541" y="728" type="line"/>
      <point x="907" y="728" type="line"/>
      <point x="907" y="160" type="line"/>
      <point x="861" y="90"/>
      <point x="677" y="-30"/>
      <point x="549" y="-30" type="qcurve" smooth="yes"/>
      <point x="351" y="-30"/>
      <point x="116" y="346"/>
    </contour>
  </outline>
</glyph>
<glyph name="J" format="2">
  <advance width="724"/>
  <unicode hex="004A"/>
  <anchor x="362" y="0" name="bottom"/>
  <anchor x="666" y="1456" name="top"/>
  <outline>
    <contour>
      <point x="25" y="400" type="qcurve" smooth="yes"/>
      <point x="25" y="410" type="line"/>
      <point x="29" y="410" type="line"/>
      <point x="29" y="400" type="line" smooth="yes"/>
      <point x="29" y="270"/>
      <point x="172" y="134"/>
      <point x="297" y="134" type="qcurve" smooth="yes"/>
      <point x="422" y="134"/>
      <point x="565" y="285"/>
      <point x="565" y="425" type="qcurve" smooth="yes"/>
      <point x="565" y="1456" type="line"/>
      <point x="569" y="1456" type="line"/>
      <point x="569" y="425" type="line" smooth="yes"/>
      <point x="569" y="215"/>
      <point x="417" y="-30"/>
      <point x="297" y="-30" type="qcurve" smooth="yes"/>
      <point x="176" y="-30"/>
      <point x="25" y="200"/>
    </contour>
  </outline>
</glyph>
<glyph name="L" format="2">
  <advance width="918"/>
  <unicode hex="004C"/>
  <anchor x="540" y="0" name="bottom"/>
  <anchor x="648" y="728" name="center"/>
  <anchor x="172" y="1456" name="top"/>
  <anchor x="537" y="1052" name="topright"/>
  <outline>
    <contour>
      <point x="170" y="0" type="line"/>
      <point x="170" y="1456" type="line"/>
      <point x="174" y="1456" type="line"/>
      <point x="174" y="158" type="line"/>
      <point x="864" y="158" type="line"/>
      <point x="864" y="0" type="line"/>
    </contour>
  </outline>
</glyph>
<glyph name="M" format="2">
  <advance width="1742"/>
  <unicode hex="004D"/>
  <anchor x="939" y="0" name="bottom"/>
  <anchor x="939" y="1456" name="top"/>
  <outline>
    <contour>
      <point x="170" y="0" type="line"/>
      <point x="170" y="1456" type="line"/>
      <point x="310" y="1456" type="line"/>
      <point x="820" y="143" type="line" smooth="yes"/>
      <point x="832" y="113"/>
      <point x="857" y="48"/>
      <point x="871" y="18" type="qcurve"/>
      <point x="879" y="18" type="line"/>
      <point x="887" y="48"/>
      <point x="908" y="113"/>
      <point x="920" y="143" type="qcurve" smooth="yes"/>
      <point x="1438" y="1456" type="line"/>
      <point x="1572" y="1456" type="line"/>
      <point x="1572" y="0" type="line"/>
      <point x="1568" y="0" type="line"/>
      <point x="1568" y="1240" type="line" smooth="yes"/>
      <point x="1568" y="1270"/>
      <point x="1568" y="1346"/>
      <point x="1568" y="1375" type="qcurve"/>
      <point x="1560" y="1375" type="line"/>
      <point x="1557" y="1353"/>
      <point x="1535" y="1270"/>
      <point x="1524" y="1240" type="qcurve" smooth="yes"/>
      <point x="1037" y="0" type="line"/>
      <point x="871" y="0" type="line"/>
      <point x="393" y="1231" type="line" smooth="yes"/>
      <point x="381" y="1262"/>
      <point x="352" y="1335"/>
      <point x="341" y="1365" type="qcurve"/>
      <point x="333" y="1365" type="line"/>
      <point x="341" y="1334"/>
      <point x="352" y="1260"/>
      <point x="352" y="1230" type="qcurve" smooth="yes"/>
      <point x="352" y="0" type="line"/>
    </contour>
  </outline>
</glyph>
<glyph name="OE" format="2">
  <advance width="1499"/>
  <unicode hex="0152"/>
  <outline>
    <contour>
      <point x="546" y="-21" type="qcurve" smooth="yes"/>
      <point x="381" y="-21"/>
      <point x="115" y="366"/>
      <point x="115" y="732" type="qcurve" smooth="yes"/>
      <point x="115" y="743" type="line" smooth="yes"/>
      <point x="115" y="1090"/>
      <point x="379" y="1477"/>
      <point x="578" y="1477" type="qcurve" smooth="yes"/>
      <point x="604" y="1477"/>
      <point x="721" y="1464"/>
      <point x="773" y="1456" type="qcurve"/>
      <point x="1421" y="1456" type="line"/>
      <point x="1421" y="1298" type="line"/>
      <point x="699" y="1298" type="line"/>
      <point x="699" y="157" type="line"/>
      <point x="1431" y="157" type="line"/>
      <point x="1431" y="0" type="line"/>
      <point x="773" y="0" type="line"/>
      <point x="721" y="-7"/>
      <point x="605" y="-21"/>
    </contour>
    <contour>
      <point x="524" y="128" type="qcurve" smooth="yes"/>
      <point x="577" y="128"/>
      <point x="657" y="137"/>
      <point x="695" y="143" type="qcurve"/>
      <point x="695" y="1310" type="line"/>
      <point x="643" y="1317"/>
      <point x="548" y="1325"/>
      <point x="526" y="1325" type="qcurve" smooth="yes"/>
      <point x="349" y="1325"/>
      <point x="119" y="1018"/>
      <point x="119" y="752" type="qcurve" smooth="yes"/>
      <point x="119" y="715" type="line" smooth="yes"/>
      <point x="119" y="435"/>
      <point x="352" y="128"/>
    </contour>
    <contour>
      <point x="698" y="673" type="line"/>
      <point x="698" y="830" type="line"/>
      <point x="1329" y="830" type="line"/>
      <point x="1329" y="673" type="line"/>
    </contour>
  </outline>
</glyph>
<glyph name="Gamma" format="2">
  <advance width="889"/>
  <unicode hex="0393"/>
  <anchor x="523" y="1456" name="top"/>
  <anchor x="172" y="708" name="center"/>
  <outline>
    <contour>
      <point x="170" y="0" type="line"/>
      <point x="170" y="1456" type="line"/>
      <point x="864" y="1456" type="line"/>
      <point x="864" y="1298" type="line"/>
      <point x="174" y="1298" type="line"/>
      <point x="174" y="0" type="line"/>
    </contour>
  </outline>
</glyph>
<glyph name="Delta" format="2">
  <advance width="1180"/>
  <unicode hex="0394"/>
  <outline>
    <contour>
      <point x="29" y="0" type="line"/>
      <point x="29" y="107" type="line"/>
      <point x="561" y="1466" type="line"/>
      <point x="619" y="1466" type="line"/>
      <point x="1152" y="107" type="line"/>
      <point x="1152" y="0" type="line"/>
    </contour>
    <contour>
      <point x="240" y="158" type="line"/>
      <point x="1127" y="158" type="line"/>
      <point x="724" y="1190" type="line" smooth="yes"/>
      <point x="711" y="1222"/>
      <point x="682" y="1294"/>
      <point x="674" y="1318" type="qcurve"/>
      <point x="668" y="1318" type="line"/>
      <point x="665" y="1288"/>
      <point x="651" y="1223"/>
      <point x="638" y="1190" type="qcurve" smooth="yes"/>
    </contour>
  </outline>
</glyph>
<glyph name="Theta" format="2">
  <advance width="1072"/>
  <unicode hex="0398"/>
  <outline>
    <contour>
      <point x="536" y="-30" type="qcurve" smooth="yes"/>
      <point x="353" y="-30"/>
      <point x="119" y="346"/>
      <point x="119" y="682" type="qcurve" smooth="yes"/>
      <point x="119" y="774" type="line" smooth="yes"/>
      <point x="119" y="1110"/>
      <point x="353" y="1486"/>
      <point x="536" y="1486" type="qcurve" smooth="yes"/>
      <point x="719" y="1486"/>
      <point x="953" y="1110"/>
      <point x="953" y="774" type="qcurve" smooth="yes"/>
      <point x="953" y="682" type="line" smooth="yes"/>
      <point x="953" y="346"/>
      <point x="719" y="-30"/>
    </contour>
    <contour>
      <point x="536" y="134" type="qcurve" smooth="yes"/>
      <point x="726" y="134"/>
      <point x="957" y="426"/>
      <point x="957" y="682" type="qcurve" smooth="yes"/>
      <point x="957" y="774" type="line" smooth="yes"/>
      <point x="957" y="1030"/>
      <point x="726" y="1322"/>
      <point x="536" y="1322" type="qcurve" smooth="yes"/>
      <point x="346" y="1322"/>
      <point x="115" y="1030"/>
      <point x="115" y="774" type="qcurve" smooth="yes"/>
      <point x="115" y="682" type="line" smooth="yes"/>
      <point x="115" y="426"/>
      <point x="346" y="134"/>
    </contour>
    <contour>
      <point x="274" y="659" type="line"/>
      <point x="274" y="827" type="line"/>
      <point x="798" y="827" type="line"/>
      <point x="798" y="659" type="line"/>
    </contour>
  </outline>
</glyph>
<glyph name="Pi" format="2">
  <advance width="1018"/>
  <unicode hex="03A0"/>
  <outline>
    <contour>
      <point x="148" y="0" type="line"/>
      <point x="148" y="1456" type="line"/>
      <point x="870" y="1456" type="line"/>
      <point x="870" y="0" type="line"/>
      <point x="866" y="0" type="line"/>
      <point x="866" y="1298" type="line"/>
      <point x="152" y="1298" type="line"/>
      <point x="152" y="0" type="line"/>
    </contour>
  </outline>
</glyph>
<glyph name="Psi" format="2">
  <advance width="1149"/>
  <unicode hex="03A8"/>
  <outline>
    <contour>
      <point x="573" y="0" type="line"/>
      <point x="573" y="1456" type="line"/>
      <point x="577" y="1456" type="line"/>
      <point x="577" y="0" type="line"/>
    </contour>
    <contour>
      <point x="574" y="361" type="line"/>
      <point x="355" y="361"/>
      <point x="155" y="635"/>
      <point x="155" y="928" type="qcurve" smooth="yes"/>
      <point x="155" y="1456" type="line"/>
      <point x="159" y="1456" type="line"/>
      <point x="159" y="926" type="line" smooth="yes"/>
      <point x="159" y="711"/>
      <point x="344" y="519"/>
      <point x="574" y="519" type="qcurve"/>
      <point x="576" y="519" type="line"/>
      <point x="807" y="519"/>
      <point x="994" y="711"/>
      <point x="990" y="926" type="qcurve" smooth="yes"/>
      <point x="990" y="1456" type="line"/>
      <point x="994" y="1456" type="line"/>
      <point x="994" y="928" type="line" smooth="yes"/>
      <point x="994" y="635"/>
      <point x="804" y="361"/>
      <point x="576" y="361" type="qcurve"/>
    </contour>
  </outline>
</glyph>
<glyph name="Kaisymbol" format="2">
  <advance width="1266"/>
  <unicode hex="03CF"/>
  <outline>
    <contour>
      <point x="358" y="0" type="line"/>
      <point x="358" y="1456" type="line"/>
      <point x="362" y="1456" type="line"/>
      <point x="362" y="0" type="line"/>
    </contour>
    <contour>
      <point x="360" y="501" type="line"/>
      <point x="360" y="738" type="line"/>
      <point x="1010" y="1456" type="line"/>
      <point x="1242" y="1456" type="line"/>
      <point x="594" y="752" type="line"/>
    </contour>
    <contour>
      <point x="1091" y="83" type="line"/>
      <point x="556" y="800" type="line"/>
      <point x="558" y="804" type="line"/>
      <point x="1196" y="-51" type="line"/>
      <point x="527" y="-590" type="line"/>
      <point x="413" y="-456" type="line"/>
    </contour>
  </outline>
</glyph>
<glyph name="Dzhe" format="2">
  <advance width="1062"/>
  <unicode hex="040F"/>
  <outline>
    <contour>
      <point x="170" y="0" type="line"/>
      <point x="170" y="1456" type="line"/>
      <point x="174" y="1456" type="line"/>
      <point x="174" y="158" type="line"/>
      <point x="888" y="158" type="line"/>
      <point x="888" y="1456" type="line"/>
      <point x="892" y="1456" type="line"/>
      <point x="892" y="0" type="line"/>
    </contour>
    <contour>
      <point x="445" y="-290" type="line"/>
      <point x="445" y="80" type="line"/>
      <point x="617" y="80" type="line"/>
      <point x="617" y="-290" type="line"/>
    </contour>
  </outline>
</glyph>
<glyph name="Be" format="2">
  <advance width="824"/>
  <unicode hex="0411"/>
  <outline>
    <contour>
      <point x="170" y="0" type="line"/>
      <point x="170" y="1456" type="line"/>
      <point x="697" y="1456" type="line"/>
      <point x="697" y="1298" type="line"/>
      <point x="174" y="1298" type="line"/>
      <point x="174" y="158" type="line"/>
      <point x="464" y="158" type="line" smooth="yes"/>
      <point x="634" y="158"/>
      <point x="770" y="319"/>
      <point x="770" y="435" type="qcurve" smooth="yes"/>
      <point x="770" y="551"/>
      <point x="634" y="708"/>
      <point x="464" y="708" type="qcurve" smooth="yes"/>
      <point x="172" y="708" type="line"/>
      <point x="172" y="866" type="line"/>
      <point x="424" y="866" type="line"/>
      <point x="570" y="866"/>
      <point x="774" y="630"/>
      <point x="774" y="435" type="qcurve" smooth="yes"/>
      <point x="774" y="239"/>
      <point x="570" y="0"/>
      <point x="424" y="0" type="qcurve"/>
    </contour>
  </outline>
</glyph>
<glyph name="Ucyr" format="2">
  <advance width="1178"/>
  <unicode hex="0423"/>
  <anchor x="575" y="1456" name="top"/>
  <outline>
    <contour>
      <point x="92" y="156" type="line"/>
      <point x="118" y="148"/>
      <point x="182" y="138"/>
      <point x="212" y="138" type="qcurve" smooth="yes"/>
      <point x="308" y="138"/>
      <point x="449" y="248"/>
      <point x="525" y="411" type="qcurve"/>
      <point x="525" y="411" type="line"/>
      <point x="15" y="1456" type="line"/>
      <point x="19" y="1456" type="line"/>
      <point x="455" y="564" type="line" smooth="yes"/>
      <point x="481" y="512"/>
      <point x="510" y="454"/>
      <point x="529" y="418" type="qcurve"/>
      <point x="535" y="418" type="line"/>
      <point x="544" y="453"/>
      <point x="566" y="512"/>
      <point x="588" y="564" type="qcurve" smooth="yes"/>
      <point x="967" y="1456" type="line"/>
      <point x="1163" y="1456" type="line"/>
      <point x="695" y="393" type="line" smooth="yes"/>
      <point x="585" y="143"/>
      <point x="389" y="-30"/>
      <point x="241" y="-30" type="qcurve" smooth="yes"/>
      <point x="182" y="-30"/>
      <point x="120" y="-20"/>
      <point x="92" y="-10" type="qcurve"/>
    </contour>
  </outline>
</glyph>
<glyph name="Che" format="2">
  <advance width="1106"/>
  <unicode hex="0427"/>
  <guideline x="1123" y="741" angle="90.0" identifier="nfCxFSb4p1"/>
  <anchor x="935" y="0" name="cy_descender"/>
  <outline>
    <contour>
      <point x="144" y="1032" type="line" smooth="yes"/>
      <point x="144" y="854"/>
      <point x="307" y="734"/>
      <point x="505" y="734" type="qcurve" smooth="yes"/>
      <point x="624" y="734"/>
      <point x="834" y="754"/>
      <point x="934" y="775" type="qcurve"/>
      <point x="934" y="617" type="line"/>
      <point x="800" y="595"/>
      <point x="615" y="576"/>
      <point x="490" y="576" type="qcurve" smooth="yes"/>
      <point x="367" y="576"/>
      <point x="139" y="807"/>
      <point x="140" y="1035" type="qcurve" smooth="yes"/>
      <point x="140" y="1456" type="line"/>
      <point x="144" y="1456" type="line"/>
    </contour>
    <contour>
      <point x="936" y="1456" type="line"/>
      <point x="936" y="0" type="line"/>
      <point x="932" y="0" type="line"/>
      <point x="932" y="1456" type="line"/>
    </contour>
  </outline>
</glyph>
<glyph name="Sha" format="2">
  <advance width="1380"/>
  <unicode hex="0428"/>
  <anchor x="1210" y="0" name="cy_descender"/>
  <outline>
    <contour>
      <point x="170" y="1456" type="line"/>
      <point x="174" y="1456" type="line"/>
      <point x="174" y="158" type="line"/>
      <point x="688" y="158" type="line"/>
      <point x="688" y="1456" type="line"/>
      <point x="692" y="1456" type="line"/>
      <point x="692" y="158" type="line"/>
      <point x="1206" y="158" type="line"/>
      <point x="1206" y="1456" type="line"/>
      <point x="1210" y="1456" type="line"/>
      <point x="1210" y="0" type="line"/>
      <point x="170" y="0" type="line"/>
    </contour>
  </outline>
</glyph>
<glyph name="Hard" format="2">
  <advance width="953"/>
  <unicode hex="042A"/>
  <outline>
    <contour>
      <point x="299" y="0" type="line"/>
      <point x="299" y="1298" type="line"/>
      <point x="24" y="1298" type="line"/>
      <point x="24" y="1456" type="line"/>
      <point x="303" y="1456" type="line"/>
      <point x="303" y="158" type="line"/>
      <point x="593" y="158" type="line" smooth="yes"/>
      <point x="763" y="158"/>
      <point x="899" y="325"/>
      <point x="899" y="445" type="qcurve" smooth="yes"/>
      <point x="899" y="565"/>
      <point x="763" y="728"/>
      <point x="593" y="728" type="qcurve" smooth="yes"/>
      <point x="301" y="728" type="line"/>
      <point x="301" y="886" type="line"/>
      <point x="553" y="886" type="line"/>
      <point x="723" y="886"/>
      <point x="903" y="645"/>
      <point x="903" y="445" type="qcurve" smooth="yes"/>
      <point x="903" y="245"/>
      <point x="723" y="0"/>
      <point x="553" y="0" type="qcurve"/>
    </contour>
  </outline>
</glyph>
<glyph name="Ya" format="2">
  <advance width="874"/>
  <unicode hex="042F"/>
  <anchor x="374" y="1456" name="top"/>
  <outline>
    <contour>
      <point x="40" y="0" type="line"/>
      <point x="404" y="672" type="line"/>
      <point x="408" y="671" type="line"/>
      <point x="44" y="0" type="line"/>
    </contour>
    <contour>
      <point x="700" y="0" type="line"/>
      <point x="700" y="1300" type="line"/>
      <point x="418" y="1300" type="line" smooth="yes"/>
      <point x="252" y="1300"/>
      <point x="122" y="1144"/>
      <point x="122" y="1028" type="qcurve" smooth="yes"/>
      <point x="122" y="912"/>
      <point x="252" y="750"/>
      <point x="418" y="750" type="qcurve" smooth="yes"/>
      <point x="702" y="750" type="line"/>
      <point x="702" y="594" type="line"/>
      <point x="365" y="594" type="line"/>
      <point x="360" y="604" type="line"/>
      <point x="249" y="625"/>
      <point x="118" y="858"/>
      <point x="118" y="1028" type="qcurve" smooth="yes"/>
      <point x="118" y="1222"/>
      <point x="372" y="1456"/>
      <point x="606" y="1456" type="qcurve" smooth="yes"/>
      <point x="704" y="1456" type="line"/>
      <point x="704" y="0" type="line"/>
    </contour>
  </outline>
</glyph>
<glyph name="Cheverticalstroke-cy" format="2">
  <advance width="1012"/>
  <unicode hex="04B8"/>
  <outline>
    <contour>
      <point x="578" y="1106" type="line"/>
      <point x="578" y="250" type="line"/>
      <point x="408" y="250" type="line"/>
      <point x="408" y="1106" type="line"/>
    </contour>
    <contour>
      <point x="144" y="1032" type="line" smooth="yes"/>
      <point x="144" y="854"/>
      <point x="307" y="734"/>
      <point x="505" y="734" type="qcurve" smooth="yes"/>
      <point x="617" y="734"/>
      <point x="752" y="742"/>
      <point x="840" y="765" type="qcurve"/>
      <point x="840" y="607" type="line"/>
      <point x="746" y="586"/>
      <point x="608" y="576"/>
      <point x="490" y="576" type="qcurve" smooth="yes"/>
      <point x="367" y="576"/>
      <point x="139" y="807"/>
      <point x="140" y="1035" type="qcurve" smooth="yes"/>
      <point x="140" y="1456" type="line"/>
      <point x="144" y="1456" type="line"/>
    </contour>
    <contour>
      <point x="842" y="1456" type="line"/>
      <point x="842" y="0" type="line"/>
      <point x="838" y="0" type="line"/>
      <point x="838" y="1456" type="line"/>
    </contour>
  </outline>
</glyph>
<glyph name="Shha" format="2">
  <advance width="1012"/>
  <unicode hex="04BA"/>
  <outline>
    <contour>
      <point x="868" y="424" type="line" smooth="yes"/>
      <point x="868" y="602"/>
      <point x="705" y="722"/>
      <point x="507" y="722" type="qcurve" smooth="yes"/>
      <point x="388" y="722"/>
      <point x="270" y="702"/>
      <point x="170" y="681" type="qcurve"/>
      <point x="170" y="839" type="line"/>
      <point x="304" y="861"/>
      <point x="397" y="880"/>
      <point x="522" y="880" type="qcurve"/>
      <point x="727" y="880"/>
      <point x="872" y="689"/>
      <point x="872" y="421" type="qcurve" smooth="yes"/>
      <point x="872" y="0" type="line"/>
      <point x="868" y="0" type="line"/>
    </contour>
    <contour>
      <point x="170" y="0" type="line"/>
      <point x="170" y="1456" type="line"/>
      <point x="174" y="1456" type="line"/>
      <point x="174" y="0" type="line"/>
    </contour>
  </outline>
</glyph>
<glyph name="De.bgr" format="2">
  <advance width="1303"/>
  <outline>
    <contour>
      <point x="10" y="-290" type="line"/>
      <point x="10" y="158" type="line"/>
      <point x="1293" y="158" type="line"/>
      <point x="1293" y="-290" type="line"/>
      <point x="1121" y="-290" type="line"/>
      <point x="1121" y="0" type="line"/>
      <point x="182" y="0" type="line"/>
      <point x="182" y="-290" type="line"/>
    </contour>
    <contour>
      <point x="121" y="78" type="line"/>
      <point x="639" y="1466" type="line"/>
      <point x="647" y="1466" type="line"/>
      <point x="1181" y="79" type="line"/>
      <point x="977" y="79" type="line"/>
      <point x="647" y="952" type="line" smooth="yes"/>
      <point x="633" y="988"/>
      <point x="563" y="1173"/>
      <point x="554" y="1204" type="qcurve"/>
      <point x="546" y="1204" type="line"/>
      <point x="535" y="1174"/>
      <point x="514" y="1121"/>
      <point x="502" y="1088" type="qcurve" smooth="yes"/>
      <point x="125" y="78" type="line"/>
    </contour>
  </outline>
</glyph>
<glyph name="acutecomb-stack.case" format="2">
  <anchor x="0.0" y="1456" name="_top"/>
  <anchor x="0" y="1933" name="top"/>
  <anchor x="0" y="1456" name="_topright"/>
  <outline>
    <contour>
      <point x="-131" y="1707" type="line"/>
      <point x="225" y="1860" type="line"/>
      <point x="227" y="1856" type="line"/>
      <point x="-49" y="1597" type="line"/>
    </contour>
  </outline>
</glyph>
<glyph name="acutecombstack.case" format="2">
  <anchor x="0" y="1536" name="_top"/>
  <anchor x="0" y="1941" name="top"/>
  <outline>
    <contour>
      <point x="-210" y="1715" type="line"/>
      <point x="147" y="1865" type="line"/>
      <point x="149" y="1861" type="line"/>
      <point x="-128" y="1605" type="line"/>
    </contour>
  </outline>
</glyph>
<glyph name="dotaccentcomb-stack.case" format="2">
  <anchor x="0" y="1456" name="_top"/>
  <anchor x="0" y="1836" name="top"/>
  <outline>
    <contour>
      <point x="-23" y="1637" type="qcurve" smooth="yes"/>
      <point x="-23" y="1647"/>
      <point x="-11" y="1659"/>
      <point x="0" y="1659" type="qcurve" smooth="yes"/>
      <point x="11" y="1659"/>
      <point x="23" y="1647"/>
      <point x="23" y="1637" type="qcurve" smooth="yes"/>
      <point x="23" y="1628"/>
      <point x="11" y="1615"/>
      <point x="0" y="1615" type="qcurve" smooth="yes"/>
      <point x="-11" y="1615"/>
      <point x="-23" y="1628"/>
    </contour>
  </outline>
</glyph>
<glyph name="hungarumlautcomb.case" format="2">
  <anchor x="0" y="1456" name="_top"/>
  <anchor x="0" y="1998" name="top"/>
  <outline>
    <contour>
      <point x="-263" y="1659" type="line"/>
      <point x="30" y="1949" type="line"/>
      <point x="33" y="1948" type="line"/>
      <point x="-136" y="1600" type="line"/>
    </contour>
    <contour>
      <point x="71" y="1659" type="line"/>
      <point x="364" y="1949" type="line"/>
      <point x="367" y="1948" type="line"/>
      <point x="198" y="1600" type="line"/>
    </contour>
  </outline>
</glyph>
<glyph name="ringcomb.case" format="2">
  <anchor x="0" y="1456" name="_top"/>
  <anchor x="0" y="2058" name="top"/>
  <outline>
    <contour>
      <point x="-117" y="1717" type="qcurve" smooth="yes"/>
      <point x="-117" y="1774"/>
      <point x="-49" y="1835"/>
      <point x="0" y="1835" type="qcurve" smooth="yes"/>
      <point x="49" y="1835"/>
      <point x="117" y="1772"/>
      <point x="117" y="1717" type="qcurve" smooth="yes"/>
      <point x="117" y="1664"/>
      <point x="53" y="1600"/>
      <point x="0" y="1600" type="qcurve" smooth="yes"/>
      <point x="-50" y="1600"/>
      <point x="-117" y="1664"/>
    </contour>
    <contour>
      <point x="-113" y="1717" type="qcurve" smooth="yes"/>
      <point x="-113" y="1666"/>
      <point x="-48" y="1604"/>
      <point x="0" y="1604" type="qcurve" smooth="yes"/>
      <point x="51" y="1604"/>
      <point x="113" y="1666"/>
      <point x="113" y="1717" type="qcurve" smooth="yes"/>
      <point x="113" y="1770"/>
      <point x="47" y="1830"/>
      <point x="0" y="1830" type="qcurve" smooth="yes"/>
      <point x="-47" y="1830"/>
      <point x="-113" y="1772"/>
    </contour>
  </outline>
</glyph>
<glyph name="tildecombstack.case" format="2">
  <anchor x="0" y="1536" name="_top"/>
  <anchor x="0" y="1922" name="top"/>
  <outline>
    <contour>
      <point x="-339" y="1776" type="line"/>
      <point x="-281" y="1826"/>
      <point x="-175" y="1866"/>
      <point x="-108" y="1866" type="qcurve" smooth="yes"/>
      <point x="-73" y="1866"/>
      <point x="-11" y="1817"/>
      <point x="24" y="1791" type="qcurve" smooth="yes"/>
      <point x="57" y="1766"/>
      <point x="124" y="1717"/>
      <point x="156" y="1717" type="qcurve" smooth="yes"/>
      <point x="196" y="1717"/>
      <point x="256" y="1833"/>
      <point x="272" y="1896" type="qcurve"/>
      <point x="366" y="1805" type="line"/>
      <point x="315" y="1748"/>
      <point x="220" y="1713"/>
      <point x="155" y="1713" type="qcurve" smooth="yes"/>
      <point x="115" y="1713"/>
      <point x="54" y="1764"/>
      <point x="21" y="1788" type="qcurve" smooth="yes"/>
      <point x="-14" y="1813"/>
      <point x="-84" y="1862"/>
      <point x="-108" y="1862" type="qcurve" smooth="yes"/>
      <point x="-144" y="1862"/>
      <point x="-224" y="1725"/>
      <point x="-241" y="1685" type="qcurve"/>
    </contour>
  </outline>
</glyph>
